<?xml version="1.0" encoding="UTF-8"?><svg id="Capa_2" xmlns="http://www.w3.org/2000/svg" viewBox="0 0 429.74 97.85"><defs><style>.cls-1{fill:#f2f2f2;}.cls-2{fill:#1d1d1b;}.cls-3{fill:#74b8e6;}</style></defs><g id="Capa_1-2"><path class="cls-3" d="M155.14,10.14c-2.54,0-4.88.51-6.93,1.43-4.96,2.22-8.18,6.88-8.18,12.72,0,8.22,6.34,14.25,16.13,14.25,5.22,0,9.08-1.52,11.71-4.46l-3.51-3.65-1.56-1.62s-.06.04-.08.07c-1.85,1.57-3.61,2.32-6.26,2.32-3.55,0-5.93-1.62-6.74-4.41h19.98c.05-.76.15-1.67.15-2.38,0-9.08-6.59-14.25-14.71-14.25M155.95,21.7h-6.39c.37-1.94,1.44-3.4,3-4.15.76-.37,1.65-.57,2.63-.57,2.99,0,5.12,1.83,5.63,4.72h-4.87Z"/><path class="cls-3" d="M190.95,10.14c-3.45,0-6.54,1.17-8.72,3.45v-2.99h-9.18v27.49h9.64v-13.29c0-4.56,2.38-6.49,5.48-6.49,2.79,0,4.51,1.67,4.51,5.63v14.15h9.64v-15.72c0-8.52-4.92-12.22-11.36-12.22"/><path class="cls-3" d="M220.71,31.08c-1.72,0-2.89-1.12-2.89-3.14v-9.13h6.29v-7.2h-6.29v-7.15h-9.64v7.15h-4.01v7.2h4.01v9.23c0,7.05,4.11,10.5,11.16,10.5,2.54,0,5.02-.51,6.69-1.57l-2.38-6.74c-.81.56-1.88.86-2.94.86"/><path class="cls-3" d="M237.65,13.89v-3.3h-9.18v27.49h9.64v-12.63c0-4.82,2.69-6.8,6.59-6.8.71,0,1.32.05,2.18.15v-8.67c-4.06,0-7.25,1.27-9.23,3.75"/><path class="cls-3" d="M262.7,10.14c-8.67,0-15.11,5.88-15.11,14.15,0,6.49,3.96,11.61,10.44,13.48,1.73.5,3.63.77,5.69.77,5.22,0,9.08-1.52,11.71-4.46l-5.07-5.27c-1.88,1.62-3.65,2.38-6.34,2.38-1.39,0-2.6-.25-3.61-.72-1.56-.73-2.64-1.99-3.14-3.69h19.98c.05-.76.15-1.67.15-2.38,0-.89-.07-1.74-.19-2.55-1.12-7.49-7.2-11.7-14.52-11.7M257.13,21.7c.56-2.89,2.64-4.72,5.63-4.72s5.12,1.83,5.63,4.72h-11.26Z"/><path class="cls-3" d="M298.51,10.14c-3.45,0-6.54,1.17-8.72,3.45v-2.99h-9.18v27.49h9.64v-13.29c0-4.56,2.38-6.49,5.48-6.49,2.79,0,4.51,1.67,4.51,5.63v14.15h9.64v-15.72c0-8.52-4.92-12.22-11.36-12.22"/><path class="cls-3" d="M326.35,10.14c-4.25,0-8.85,1.09-11.99,3.11-.04.03-.09.05-.13.08l3.25,6.54c.45-.36.97-.68,1.53-.97,1.75-.89,3.92-1.42,5.92-1.42,3.8,0,5.68,1.57,5.83,4.36h-5.48c-1.16,0-2.23.06-3.21.17-6.25.72-9.01,3.66-9.01,8.04,0,4.77,3.65,8.47,10.24,8.47,4.01,0,6.74-1.37,8.11-4.01v3.55h8.98v-15.26c0-8.72-5.12-12.68-14.05-12.68M330.76,29.26c-.76,2.18-2.64,3.19-4.77,3.19-2.28,0-3.6-1.17-3.6-2.79s1.12-2.79,4.21-2.79h4.16v2.38Z"/><path class="cls-3" d="M420.63,10.9c0,3.54-2.87,6.41-6.41,6.41s-6.41-2.87-6.41-6.41,2.87-6.41,6.41-6.41,6.41,2.87,6.41,6.41"/><path class="cls-3" d="M366.98,66.18h-31.04c-4.95-.45-8.74-3.76-11-8.16-3.06-5.98,2.47-13.05,2.58-13.16h-12.48c-.4.97-.72,1.97-.97,2.99-1.63,6.72-.36,13.48,3.59,19.02,4.05,5.68,10.45,9.32,17.56,9.99h31.76s1.32,0,1.32,0v-10.69h-1.32Z"/><path class="cls-3" d="M394.73,6.06c-7.69-5.74-17.44-7.51-26.77-4.84-6.65,1.9-12.84,6.47-16.55,12.13-2.06-1.02-4.21-1.74-6.39-2.14v11.15c1.31.49,2.54,1.2,3.64,2.12.12.1.56.55.91.91,2.94,3.01,4.56,4.67,6.18,3.45l.42-.31.18-.49c.12-.33.23-.65.35-.98.89-2.51,1.81-5.11,3.22-7.28,3.74-5.79,10.1-9.17,17.01-9.04,6.92.13,13.16,3.76,16.69,9.7.77,1.3,1.37,2.62,1.81,4h11.06c-1.55-7.32-5.65-13.81-11.75-18.37"/><path class="cls-3" d="M408.25,80.18c0,3.54,2.87,6.41,6.41,6.41s6.41-2.87,6.41-6.41-2.87-6.41-6.41-6.41-6.41,2.87-6.41,6.41"/><path class="cls-3" d="M335.41,86.27c0,3.54,2.87,6.41,6.41,6.41s6.41-2.87,6.41-6.41-2.87-6.41-6.41-6.41-6.41,2.87-6.41,6.41"/><path class="cls-3" d="M347.58,48.93l-.51-1.66h-2.49l-.49,1.66h-1.65l2.56-7.27h1.73l2.56,7.27h-1.71ZM344.91,46.13h1.83l-.92-3.04-.9,3.04Z"/><path class="cls-3" d="M350.19,48.93v-7.27h2.8c.76,0,1.35.2,1.8.6.44.4.66.94.66,1.63,0,.42-.12.8-.35,1.13-.23.34-.56.6-.98.79l1.81,3.13h-1.63l-1.57-2.82h-1.03v2.82h-1.51ZM351.7,45.01h1.09c.73,0,1.1-.37,1.1-1.11s-.36-1.09-1.08-1.09h-1.11v2.2Z"/><path class="cls-3" d="M360.33,47.8c.22,0,.48-.02.78-.05v-1.77h-1.36v-1.13h2.81v3.64c-.33.17-.72.31-1.18.41-.46.1-.92.15-1.39.15-1.13,0-2.01-.32-2.62-.95s-.92-1.54-.92-2.72c0-1.25.32-2.2.95-2.85.63-.65,1.55-.98,2.76-.98.83,0,1.54.14,2.13.43v1.2c-.73-.23-1.38-.35-1.96-.35-.78,0-1.35.19-1.71.58-.36.39-.55,1-.55,1.83v.19c0,.83.18,1.43.54,1.81.36.38.93.57,1.72.57"/><polygon class="cls-3" points="364.11 48.93 364.11 41.65 368.9 41.65 368.9 42.87 365.68 42.87 365.68 44.59 368.3 44.59 368.3 45.81 365.68 45.81 365.68 47.71 368.9 47.71 368.9 48.93 364.11 48.93"/><polygon class="cls-3" points="371.56 43.88 371.56 48.93 370.18 48.93 370.18 41.65 371.86 41.65 374.82 46.74 374.82 41.65 376.2 41.65 376.2 48.93 374.52 48.93 371.56 43.88"/><polygon class="cls-3" points="379.38 48.93 379.38 42.91 377.17 42.91 377.17 41.65 383.17 41.65 383.17 42.91 380.96 42.91 380.96 48.93 379.38 48.93"/><rect class="cls-3" x="384.18" y="41.65" width="1.57" height="7.27"/><polygon class="cls-3" points="388.86 43.88 388.86 48.93 387.48 48.93 387.48 41.65 389.16 41.65 392.12 46.74 392.12 41.65 393.5 41.65 393.5 48.93 391.82 48.93 388.86 43.88"/><path class="cls-3" d="M399.55,48.93l-.51-1.66h-2.49l-.49,1.66h-1.65l2.56-7.27h1.73l2.56,7.27h-1.71ZM396.88,46.13h1.83l-.92-3.04-.9,3.04Z"/><path class="cls-1" d="M429.65,46.5h0c-.12-1.31-.72-3.53-.84-3.96-2.23-8.06-8.95-14.41-17.32-16.48,0-.02,0-.03,0-.05-.15-2.77-2.48-4.93-5.26-4.93h-.22c-2.98,0-5.41,2.44-5.32,5.42.07,2.3-.22,4.78-.85,7.52l-.49,2.14h8.55c2.08,0,6.56,2.67,8.13,4.55.44.52.83,1.07,1.17,1.64,2.08,3.41,2.41,7.48.83,11.23-1.92,4.52-6.18,7.55-11.14,7.92h-13.3v10.65s0,.04,0,.04v10l-10-10h0v-.04h-.04l-9.61-10.66h-10.35c-2.94,0-5.33,2.38-5.33,5.32v.04c0,2.94,2.38,5.32,5.32,5.33h6.43s.54-.03.54-.03l.03.03,24.33,24.33c.88.88,2.05,1.34,3.24,1.34.59,0,1.19-.11,1.76-.35,1.72-.71,2.83-2.38,2.83-4.24v-21.08h4.72s.05,0,.05,0c5.41-.32,10.68-2.65,14.83-6.55,4.21-3.95,6.8-9.1,7.31-14.49.12-1.26.12-3.39,0-4.65"/><path class="cls-2" d="M30.45,32.11c0,1.33.14,2.41.4,3.2.29.79.65,1.65,1.15,2.59.18.29.25.57.25.83,0,.36-.22.72-.68,1.08l-2.26,1.51c-.32.22-.65.32-.93.32-.36,0-.72-.18-1.08-.5-.5-.54-.93-1.11-1.29-1.69-.36-.61-.72-1.29-1.11-2.12-2.8,3.31-6.33,4.96-10.57,4.96-3.02,0-5.43-.86-7.19-2.59-1.76-1.73-2.66-4.03-2.66-6.9,0-3.05,1.08-5.53,3.27-7.4s5.1-2.8,8.81-2.8c1.22,0,2.48.11,3.81.29,1.33.18,2.7.47,4.13.79v-2.62c0-2.73-.57-4.64-1.69-5.75-1.15-1.11-3.09-1.65-5.86-1.65-1.26,0-2.55.14-3.88.47-1.33.32-2.62.72-3.88,1.22-.57.25-1.01.4-1.26.47-.25.07-.43.11-.57.11-.5,0-.75-.36-.75-1.11v-1.76c0-.58.07-1.01.25-1.26.18-.25.5-.5,1.01-.75,1.26-.65,2.77-1.19,4.53-1.62,1.76-.47,3.63-.68,5.61-.68,4.28,0,7.4.97,9.42,2.91,1.98,1.94,2.98,4.89,2.98,8.84v11.64h.07ZM15.86,37.57c1.19,0,2.41-.22,3.7-.65,1.29-.43,2.44-1.22,3.41-2.3.57-.68,1.01-1.44,1.22-2.3.22-.86.36-1.91.36-3.13v-1.51c-1.04-.25-2.16-.47-3.31-.61-1.15-.14-2.26-.22-3.38-.22-2.41,0-4.17.47-5.36,1.44-1.19.97-1.76,2.34-1.76,4.13,0,1.69.43,2.95,1.33,3.81.86.9,2.12,1.33,3.77,1.33ZM44.72,41.45c-.65,0-1.08-.11-1.37-.36-.29-.22-.54-.72-.75-1.4l-8.45-27.78c-.22-.72-.32-1.19-.32-1.44,0-.57.29-.9.86-.9h3.52c.68,0,1.15.11,1.4.36.29.22.5.72.72,1.4l6.04,23.79,5.61-23.79c.18-.72.4-1.19.68-1.4.29-.22.79-.36,1.44-.36h2.88c.68,0,1.15.11,1.44.36.29.22.54.72.68,1.4l5.68,24.08,6.22-24.08c.22-.72.47-1.19.72-1.4.29-.22.75-.36,1.4-.36h3.34c.57,0,.9.29.9.9,0,.18-.04.36-.07.58-.04.22-.11.5-.25.9l-8.66,27.78c-.22.72-.47,1.19-.75,1.4-.29.22-.75.36-1.37.36h-3.09c-.68,0-1.15-.11-1.44-.36-.29-.25-.54-.72-.68-1.44l-5.57-23.18-5.53,23.15c-.18.72-.4,1.19-.68,1.44-.29.25-.79.36-1.44.36h-3.09ZM90.91,42.42c-1.87,0-3.74-.22-5.53-.65-1.8-.43-3.2-.9-4.13-1.44-.58-.32-.97-.68-1.11-1.01-.14-.32-.22-.68-.22-1.01v-1.83c0-.75.29-1.11.83-1.11.22,0,.43.04.65.11.22.07.54.22.9.36,1.22.54,2.55.97,3.95,1.26,1.44.29,2.84.43,4.28.43,2.26,0,4.03-.4,5.25-1.19,1.22-.79,1.87-1.94,1.87-3.41,0-1.01-.32-1.83-.97-2.52-.65-.68-1.87-1.29-3.63-1.87l-5.21-1.62c-2.62-.83-4.56-2.05-5.75-3.67-1.19-1.58-1.8-3.34-1.8-5.21,0-1.51.32-2.84.97-3.99.65-1.15,1.51-2.16,2.59-2.95,1.08-.83,2.3-1.44,3.74-1.87,1.44-.43,2.95-.61,4.53-.61.79,0,1.62.04,2.41.14.83.11,1.58.25,2.34.4.72.18,1.4.36,2.05.57.65.22,1.15.43,1.51.65.5.29.86.57,1.08.9.22.29.32.68.32,1.19v1.69c0,.75-.29,1.15-.83,1.15-.29,0-.75-.14-1.37-.43-2.05-.93-4.35-1.4-6.9-1.4-2.05,0-3.67.32-4.78,1.01-1.11.68-1.69,1.73-1.69,3.2,0,1.01.36,1.87,1.08,2.55.72.68,2.05,1.37,3.95,1.98l5.1,1.62c2.59.83,4.46,1.98,5.57,3.45,1.11,1.47,1.65,3.16,1.65,5.03,0,1.55-.32,2.95-.93,4.17-.65,1.22-1.51,2.3-2.62,3.16-1.11.9-2.44,1.55-3.99,2.01-1.62.5-3.31.75-5.14.75Z"/><path class="cls-2" d="M97.7,59.89c-11.83,8.73-29,13.37-43.78,13.37-20.7,0-39.36-7.66-53.45-20.38-1.11-1.01-.11-2.37,1.22-1.58,15.24,8.84,34.04,14.2,53.48,14.2,13.12,0,27.53-2.73,40.79-8.34,1.98-.9,3.67,1.29,1.73,2.73Z"/><path class="cls-2" d="M102.63,54.28c-1.51-1.94-9.99-.93-13.84-.47-1.15.14-1.33-.86-.29-1.62,6.76-4.74,17.86-3.38,19.16-1.8,1.29,1.62-.36,12.72-6.69,18.04-.97.83-1.91.4-1.47-.68,1.44-3.56,4.64-11.57,3.13-13.48"/><rect class="cls-2" x="125.22" y="9.24" width="1.38" height="60.56"/></g></svg>