<?xml version="1.0" encoding="UTF-8"?><svg id="Capa_2" xmlns="http://www.w3.org/2000/svg" viewBox="0 0 452.19 97.85"><defs><style>.cls-1{fill:#f2f2f2;}.cls-2{fill:#1d1d1b;}.cls-3{fill:#74b8e6;}</style></defs><g id="Capa_1-2"><path class="cls-3" d="M119.42,37.96c-3.68,0-6.72-1.25-9.14-3.75-2.41-2.5-3.62-5.76-3.62-9.79s1.13-7.37,3.38-9.84c2.26-2.46,5.31-3.7,9.16-3.7,2.08,0,3.89.36,5.41,1.09,1.53.73,2.58,1.72,3.18,2.97V1h9.37v36.44h-9.37v-3.7c-.59,1.14-1.58,2.13-2.97,2.97-1.39.83-3.19,1.25-5.41,1.25ZM121.81,17.71c-1.81,0-3.31.55-4.5,1.64-1.2,1.09-1.8,2.79-1.8,5.08s.6,4.02,1.8,5.08c1.2,1.06,2.71,1.59,4.55,1.59s3.37-.53,4.37-1.59c1.01-1.06,1.53-2.54,1.56-4.45v-.88c-.03-2.01-.55-3.59-1.54-4.74-.99-1.14-2.47-1.72-4.45-1.72Z"/><path class="cls-3" d="M155.8,38.06c-4.55,0-8.21-1.25-10.98-3.75-2.78-2.5-4.16-5.79-4.16-9.89s1.37-7.35,4.11-9.86c2.74-2.52,6.3-3.77,10.67-3.77,3.33,0,6.14.81,8.43,2.42,2.29,1.61,3.86,3.58,4.71,5.91.85,2.33,1.1,4.74.75,7.24-.07.35-.12.55-.16.62h-19.05c.45,1.39,1.28,2.45,2.47,3.18s2.56,1.09,4.09,1.09c1.28,0,2.54-.24,3.77-.73,1.23-.49,2.12-1.01,2.68-1.56l4.69,4.79c-2.67,2.88-6.68,4.32-12.02,4.32ZM150.23,20.88h10.31c-.21-.83-.76-1.56-1.67-2.19-.9-.62-2.05-.94-3.44-.94s-2.54.3-3.46.91c-.92.61-1.5,1.35-1.74,2.21Z"/><path class="cls-3" d="M195.57,19.9c-3.75-1.74-6.96-2.6-9.63-2.6-1.91,0-2.92.31-3.02.94-.04.21.08.41.34.6.26.19.65.36,1.17.52s1.08.31,1.67.47c.59.16,1.28.36,2.08.6.8.24,1.53.49,2.19.73,5.52,2.08,7.95,5.43,7.29,10.05-.73,4.65-4.48,6.97-11.24,6.97-6.32,0-11.23-1.04-14.73-3.12l2.5-6.51c3.68,1.74,7.03,2.6,10.05,2.6,1.73,0,2.65-.29,2.76-.89.03-.24-.08-.45-.34-.62-.26-.17-.65-.34-1.17-.5s-1.08-.31-1.67-.47c-.59-.16-1.29-.36-2.11-.6-.82-.24-1.55-.49-2.21-.73-2.71-1.04-4.67-2.42-5.88-4.14-1.21-1.72-1.68-3.58-1.41-5.6.21-1.53.74-2.79,1.59-3.8.85-1.01,1.97-1.73,3.36-2.16,1.39-.43,2.69-.73,3.9-.88,1.21-.16,2.6-.23,4.16-.23,4.23,0,8.28.8,12.13,2.39l-1.77,6.98Z"/><path class="cls-3" d="M200.88,30.1c-.07-1.56.22-2.92.86-4.09.64-1.16,1.52-2.04,2.63-2.63,1.11-.59,2.26-1.02,3.44-1.3,1.18-.28,2.39-.42,3.64-.42h7.39c-.49-2.12-2.31-3.3-5.47-3.54-.24-.03-.59-.05-1.04-.05-2.67,0-5.26.78-7.76,2.34l-2.81-6.04c3.16-2.39,7.18-3.59,12.08-3.59,1.67,0,3.27.18,4.81.55,1.54.36,3.09.95,4.63,1.77,1.54.82,2.79,2.06,3.72,3.72s1.41,3.66,1.41,5.99v14.63h-9.32v-1.98c-2.08,1.67-4.75,2.52-8.02,2.55-2.95,0-5.36-.67-7.24-2-1.87-1.33-2.86-3.3-2.97-5.91ZM209.78,29.06c-.04,1.01.35,1.75,1.15,2.24.8.49,1.72.73,2.76.73,2.88,0,4.69-1.21,5.41-3.64v-2.29h-3.9c-3.51,0-5.31.99-5.41,2.97Z"/><path class="cls-3" d="M242.63,37.44h-9.32V11.41l9.32.1v3.8c.55-1.04,1.51-1.96,2.86-2.76,1.35-.8,3.05-1.21,5.1-1.25v7.65c-.62-.07-1.09-.1-1.41-.1-1.84,0-3.38.52-4.63,1.56-1.25,1.04-1.89,2.72-1.93,5.05v11.97Z"/><path class="cls-3" d="M263.87,37.44h-9.32V11.41l9.32.1v3.8c.55-1.04,1.51-1.96,2.86-2.76,1.35-.8,3.05-1.21,5.1-1.25v7.65c-.62-.07-1.09-.1-1.41-.1-1.84,0-3.38.52-4.63,1.56s-1.89,2.72-1.93,5.05v11.97Z"/><path class="cls-3" d="M278.13,34.31c-2.78-2.5-4.17-5.79-4.17-9.89s1.39-7.39,4.17-9.89c2.78-2.5,6.44-3.75,10.98-3.75s8.15,1.25,10.93,3.75c2.78,2.5,4.17,5.8,4.17,9.89s-1.39,7.39-4.17,9.89-6.42,3.75-10.93,3.75-8.21-1.25-10.98-3.75ZM282.76,24.42c0,1.77.59,3.22,1.77,4.35,1.18,1.13,2.71,1.69,4.58,1.69s3.35-.56,4.53-1.69c1.18-1.13,1.77-2.58,1.77-4.35s-.59-3.27-1.77-4.4c-1.18-1.13-2.69-1.69-4.53-1.69s-3.36.56-4.55,1.69c-1.2,1.13-1.8,2.59-1.8,4.4Z"/><path class="cls-3" d="M308.22,37.44V1h9.32v36.44h-9.32Z"/><path class="cls-3" d="M322.43,37.44V1h9.32v36.44h-9.32Z"/><path class="cls-3" d="M335.28,30.1c-.07-1.56.22-2.92.86-4.09.64-1.16,1.52-2.04,2.63-2.63,1.11-.59,2.26-1.02,3.44-1.3,1.18-.28,2.39-.42,3.64-.42h7.39c-.49-2.12-2.31-3.3-5.47-3.54-.24-.03-.59-.05-1.04-.05-2.67,0-5.26.78-7.76,2.34l-2.81-6.04c3.16-2.39,7.18-3.59,12.08-3.59,1.67,0,3.27.18,4.81.55,1.54.36,3.09.95,4.63,1.77s2.79,2.06,3.72,3.72c.94,1.67,1.41,3.66,1.41,5.99v14.63h-9.32v-1.98c-2.08,1.67-4.75,2.52-8.02,2.55-2.95,0-5.36-.67-7.24-2-1.87-1.33-2.86-3.3-2.97-5.91ZM344.19,29.06c-.04,1.01.35,1.75,1.15,2.24.8.49,1.72.73,2.76.73,2.88,0,4.68-1.21,5.41-3.64v-2.29h-3.9c-3.51,0-5.31.99-5.41,2.97Z"/><path class="cls-3" d="M443.07,10.9c0,3.54-2.87,6.41-6.41,6.41s-6.41-2.87-6.41-6.41,2.87-6.41,6.41-6.41,6.41,2.87,6.41,6.41"/><path class="cls-3" d="M389.42,66.18h-31.04c-4.95-.45-8.74-3.76-11-8.16-3.06-5.98,2.47-13.05,2.58-13.16h-12.48c-.4.97-.72,1.97-.97,2.99-1.63,6.72-.36,13.48,3.59,19.02,4.05,5.68,10.45,9.32,17.56,9.99h31.76s1.32,0,1.32,0v-10.69h-1.32Z"/><path class="cls-3" d="M417.17,6.06c-7.69-5.74-17.44-7.51-26.77-4.84-6.65,1.9-12.84,6.47-16.55,12.13-2.06-1.02-4.21-1.74-6.39-2.14v11.15c1.31.49,2.54,1.2,3.64,2.12.12.1.56.55.91.91,2.94,3.01,4.56,4.67,6.18,3.45l.42-.31.18-.49c.12-.33.23-.65.35-.98.89-2.51,1.81-5.11,3.22-7.28,3.74-5.79,10.1-9.17,17.01-9.04,6.92.13,13.16,3.76,16.69,9.7.77,1.3,1.37,2.62,1.81,4h11.06c-1.55-7.32-5.65-13.81-11.75-18.37"/><path class="cls-3" d="M430.69,80.18c0,3.54,2.87,6.41,6.41,6.41s6.41-2.87,6.41-6.41-2.87-6.41-6.41-6.41-6.41,2.87-6.41,6.41"/><path class="cls-3" d="M357.85,86.27c0,3.54,2.87,6.41,6.41,6.41s6.41-2.87,6.41-6.41-2.87-6.41-6.41-6.41-6.41,2.87-6.41,6.41"/><path class="cls-3" d="M370.02,48.93l-.51-1.66h-2.49l-.49,1.66h-1.65l2.56-7.27h1.73l2.56,7.27h-1.71ZM367.35,46.13h1.83l-.92-3.04-.9,3.04Z"/><path class="cls-3" d="M372.63,48.93v-7.27h2.8c.76,0,1.35.2,1.8.6.44.4.66.94.66,1.63,0,.42-.12.8-.35,1.13-.23.34-.56.6-.98.79l1.81,3.13h-1.63l-1.57-2.82h-1.03v2.82h-1.51ZM374.15,45.01h1.09c.73,0,1.1-.37,1.1-1.11s-.36-1.09-1.08-1.09h-1.11v2.2Z"/><path class="cls-3" d="M382.77,47.8c.22,0,.48-.02.78-.05v-1.77h-1.36v-1.13h2.81v3.64c-.33.17-.72.31-1.18.41-.46.1-.92.15-1.39.15-1.13,0-2.01-.32-2.62-.95s-.92-1.54-.92-2.72c0-1.25.32-2.2.95-2.85.63-.65,1.55-.98,2.76-.98.83,0,1.54.14,2.13.43v1.2c-.73-.23-1.38-.35-1.96-.35-.78,0-1.35.19-1.71.58-.36.39-.55,1-.55,1.83v.19c0,.83.18,1.43.54,1.81.36.38.93.57,1.72.57"/><polygon class="cls-3" points="386.55 48.93 386.55 41.65 391.34 41.65 391.34 42.87 388.13 42.87 388.13 44.59 390.74 44.59 390.74 45.81 388.13 45.81 388.13 47.71 391.34 47.71 391.34 48.93 386.55 48.93"/><polygon class="cls-3" points="394.01 43.88 394.01 48.93 392.62 48.93 392.62 41.65 394.3 41.65 397.26 46.74 397.26 41.65 398.65 41.65 398.65 48.93 396.97 48.93 394.01 43.88"/><polygon class="cls-3" points="401.83 48.93 401.83 42.91 399.61 42.91 399.61 41.65 405.61 41.65 405.61 42.91 403.4 42.91 403.4 48.93 401.83 48.93"/><rect class="cls-3" x="406.62" y="41.65" width="1.57" height="7.27"/><polygon class="cls-3" points="411.3 43.88 411.3 48.93 409.92 48.93 409.92 41.65 411.6 41.65 414.56 46.74 414.56 41.65 415.94 41.65 415.94 48.93 414.26 48.93 411.3 43.88"/><path class="cls-3" d="M421.99,48.93l-.51-1.66h-2.49l-.49,1.66h-1.65l2.56-7.27h1.73l2.56,7.27h-1.71ZM419.32,46.13h1.83l-.92-3.04-.9,3.04Z"/><rect class="cls-2" x="93.98" y="1" width=".85" height="37.37"/><path class="cls-2" d="M23.35,19c0,1.02.11,1.85.3,2.45.22.61.5,1.27.88,1.98.14.22.19.44.19.63,0,.28-.17.55-.52.83l-1.74,1.16c-.25.17-.5.25-.72.25-.28,0-.55-.14-.83-.39-.39-.41-.72-.85-.99-1.3-.28-.47-.55-.99-.85-1.63-2.15,2.54-4.85,3.8-8.1,3.8-2.31,0-4.16-.66-5.51-1.98-1.35-1.32-2.04-3.09-2.04-5.29,0-2.34.83-4.24,2.51-5.68s3.91-2.15,6.75-2.15c.94,0,1.9.08,2.92.22,1.02.14,2.07.36,3.17.61v-2.01c0-2.1-.44-3.56-1.3-4.41-.88-.85-2.37-1.27-4.49-1.27-.96,0-1.96.11-2.98.36-1.02.25-2.01.55-2.98.94-.44.19-.77.3-.96.36-.19.05-.33.08-.44.08-.39,0-.58-.28-.58-.85v-1.35c0-.44.06-.77.19-.96.14-.19.39-.39.77-.58.96-.5,2.12-.91,3.47-1.24,1.35-.36,2.78-.52,4.3-.52,3.28,0,5.68.74,7.22,2.23,1.52,1.49,2.29,3.75,2.29,6.78v8.93h.05ZM12.16,23.19c.91,0,1.85-.17,2.84-.5.99-.33,1.87-.94,2.62-1.76.44-.52.77-1.1.94-1.76.17-.66.28-1.46.28-2.4v-1.16c-.8-.19-1.65-.36-2.54-.47-.88-.11-1.74-.17-2.59-.17-1.85,0-3.2.36-4.11,1.1-.91.74-1.35,1.79-1.35,3.17,0,1.3.33,2.26,1.02,2.92.66.69,1.63,1.02,2.89,1.02ZM34.3,26.17c-.5,0-.83-.08-1.05-.28-.22-.17-.41-.55-.58-1.08L26.19,3.51c-.16-.55-.25-.91-.25-1.1,0-.44.22-.69.66-.69h2.7c.52,0,.88.08,1.08.28.22.16.39.55.55,1.07l4.63,18.25,4.3-18.25c.14-.55.3-.91.52-1.07.22-.17.61-.28,1.1-.28h2.2c.52,0,.88.08,1.1.28.22.16.41.55.52,1.07l4.36,18.47,4.77-18.47c.17-.55.36-.91.55-1.07.22-.17.58-.28,1.07-.28h2.56c.44,0,.69.22.69.69,0,.14-.03.28-.05.44-.03.17-.08.39-.19.69l-6.64,21.31c-.17.55-.36.91-.58,1.08-.22.16-.58.28-1.05.28h-2.37c-.52,0-.88-.08-1.1-.28-.22-.19-.41-.55-.52-1.1l-4.27-17.78-4.24,17.75c-.14.55-.3.91-.52,1.1-.22.19-.61.28-1.1.28h-2.37ZM69.72,26.91c-1.43,0-2.87-.17-4.24-.5-1.38-.33-2.45-.69-3.17-1.1-.44-.25-.74-.52-.85-.77-.11-.25-.16-.52-.16-.77v-1.41c0-.58.22-.85.63-.85.16,0,.33.03.5.08.17.05.41.17.69.28.94.41,1.96.74,3.03.96,1.1.22,2.18.33,3.28.33,1.74,0,3.09-.3,4.02-.91.94-.61,1.43-1.49,1.43-2.62,0-.77-.25-1.41-.74-1.93-.5-.52-1.43-.99-2.78-1.43l-4-1.24c-2.01-.63-3.5-1.57-4.41-2.81-.91-1.21-1.38-2.56-1.38-4,0-1.16.25-2.18.74-3.06.5-.88,1.16-1.65,1.98-2.26.83-.63,1.76-1.1,2.87-1.43,1.1-.33,2.26-.47,3.47-.47.61,0,1.24.03,1.85.11.63.08,1.21.19,1.79.3.55.14,1.07.28,1.57.44.5.17.88.33,1.16.5.39.22.66.44.83.69.17.22.25.52.25.91v1.3c0,.58-.22.88-.63.88-.22,0-.58-.11-1.05-.33-1.57-.72-3.34-1.08-5.29-1.08-1.57,0-2.81.25-3.67.77-.85.52-1.3,1.32-1.3,2.45,0,.77.28,1.43.83,1.96.55.52,1.57,1.05,3.03,1.52l3.91,1.24c1.98.63,3.42,1.52,4.27,2.65.85,1.13,1.27,2.43,1.27,3.86,0,1.19-.25,2.26-.72,3.2-.5.94-1.16,1.76-2.01,2.43-.85.69-1.87,1.19-3.06,1.54-1.24.39-2.54.58-3.94.58Z"/><path class="cls-2" d="M74.93,40.31c-9.07,6.7-22.24,10.25-33.57,10.25-15.88,0-30.18-5.87-40.99-15.63-.85-.77-.08-1.82.94-1.21,11.69,6.78,26.1,10.89,41.01,10.89,10.06,0,21.11-2.1,31.28-6.4,1.52-.69,2.81.99,1.32,2.1Z"/><path class="cls-2" d="M78.7,36.01c-1.16-1.49-7.66-.72-10.61-.36-.88.11-1.02-.66-.22-1.24,5.18-3.64,13.7-2.59,14.69-1.38.99,1.24-.28,9.76-5.13,13.84-.74.63-1.46.3-1.13-.52,1.1-2.73,3.56-8.88,2.4-10.34"/><path class="cls-1" d="M452.1,46.5h0c-.12-1.31-.72-3.53-.84-3.96-2.23-8.06-8.95-14.41-17.32-16.48,0-.02,0-.03,0-.05-.15-2.77-2.48-4.93-5.26-4.93h-.22c-2.98,0-5.41,2.44-5.32,5.42.07,2.3-.22,4.78-.85,7.52l-.49,2.14h8.55c2.08,0,6.56,2.67,8.13,4.55.44.52.83,1.07,1.17,1.64,2.08,3.41,2.41,7.48.83,11.23-1.92,4.52-6.18,7.55-11.14,7.92h-13.3v10.65s0,.04,0,.04v10l-10-10h0v-.04h-.04l-9.61-10.66h-10.35c-2.94,0-5.33,2.38-5.33,5.32v.04c0,2.94,2.38,5.32,5.32,5.33h6.43s.54-.03.54-.03l.03.03,24.33,24.33c.88.88,2.05,1.34,3.24,1.34.59,0,1.19-.11,1.76-.35,1.72-.71,2.83-2.38,2.83-4.24v-21.08h4.72s.05,0,.05,0c5.41-.32,10.68-2.65,14.83-6.55,4.21-3.95,6.8-9.1,7.31-14.49.12-1.26.12-3.39,0-4.65"/></g></svg>